Coordinates
version=1
nRows=10
nColumns=46
inDegrees=yes

Units are S.I. units (second, meters, Newtons, ...)
Angles are in degrees.

endheader
time	pelvis_tilt	pelvis_list	pelvis_rotation	pelvis_tx	pelvis_ty	pelvis_tz	bb_angle	bb_tx	bb_ty	bb_tz	hip_flexion_r	hip_adduction_r	hip_rotation_r	knee_angle_r	knee_angle_r_beta	ankle_angle_r	subtalar_angle_r	mtp_angle_r	crank_angle_r	hip_flexion_l	hip_adduction_l	hip_rotation_l	knee_angle_l	knee_angle_l_beta	ankle_angle_l	subtalar_angle_l	mtp_angle_l	crank_angle_l	lumbar_extension	lumbar_bending	lumbar_rotation	arm_flex_r	arm_add_r	arm_rot_r	elbow_flex_r	pro_sup_r	wrist_flex_r	wrist_dev_r	arm_flex_l	arm_add_l	arm_rot_l	elbow_flex_l	pro_sup_l	wrist_flex_l	wrist_dev_l
      7.50000000	    -32.74461638	     -6.36287412	     -1.48798154	      0.42356974	      1.16689466	     -0.28109118	      0.00000000	      0.50000000	      0.00000000	      0.25000000	     65.13039563	     -2.97111217	     -5.30284912	     95.88719338	      1.67354724	      0.63248683	     -5.35883642	      0.00000000	      0.00000000	     47.69405637	    -11.43050601	     -0.45786999	     33.22867541	      0.57994979	     -8.07767675	     -0.72038027	      0.00000000	      0.00000000	    -60.90226620	      3.61353590	     -4.50953565	     40.49949123	    -21.15920501	     25.84374178	    103.50553501	     49.82844145	      0.00000000	      0.00000000	      9.79632786	    -38.07443741	     -4.50820670	    115.21995492	     53.53603724	      0.00000000	      0.00000000
      7.50500000	    -32.60543485	     -6.54565319	     -2.39141010	      0.42395044	      1.16604664	     -0.28075186	      0.00000000	      0.50000000	      0.00000000	      0.25000000	     66.37127324	     -2.18930535	     -4.88757677	     97.60086685	      1.70345648	      2.15597096	     -4.94902150	      0.00000000	      0.00000000	     45.77644452	    -12.31812131	     -1.83035632	     31.24273401	      0.54528858	     -8.74930280	      0.12937982	      0.00000000	      0.00000000	    -60.97010747	      3.23591294	     -4.06367889	     40.98872652	    -21.67734126	     26.86007892	    103.45205416	     49.91878985	      0.00000000	      0.00000000	      9.36958111	    -37.71603390	     -4.81103343	    115.13632454	     53.50504003	      0.00000000	      0.00000000
      7.51000000	    -32.54780155	     -6.96916284	     -3.16751806	      0.42412427	      1.16511609	     -0.28061745	      0.00000000	      0.50000000	      0.00000000	      0.25000000	     67.64018787	     -1.37137919	     -4.82068838	     99.10261059	      1.72966685	      2.56441263	     -4.69730036	      0.00000000	      0.00000000	     44.11059586	    -13.26201644	     -2.91840214	     29.46384110	      0.51424104	     -9.48646590	      1.02472240	      0.00000000	      0.00000000	    -60.99160795	      3.23288161	     -4.27306900	     42.26930168	    -21.46186953	     28.69094263	    102.63930402	     49.93586590	      0.00000000	      0.00000000	      7.44168557	    -37.56545603	     -6.67466719	    115.74285201	     53.56389718	      0.00000000	      0.00000000
      7.51500000	    -32.64881370	     -7.43346003	     -3.82855892	      0.42413640	      1.16395308	     -0.28086657	      0.00000000	      0.50000000	      0.00000000	      0.25000000	     69.06571639	     -0.66319662	     -4.86849092	    100.50745556	      1.75418602	      3.22088384	     -4.56158129	      0.00000000	      0.00000000	     42.70073540	    -14.06798714	     -3.75331735	     27.80607698	      0.48530760	    -10.32367234	      1.65384002	      0.00000000	      0.00000000	    -60.84434578	      3.30876535	     -3.59371247	     42.52149003	    -21.71472595	     28.95219411	    102.62917913	     49.95631695	      0.00000000	      0.00000000	      7.00259115	    -37.22926492	     -6.60975975	    115.67451974	     53.57010044	      0.00000000	      0.00000000
      7.52000000	    -32.69343566	     -7.74663302	     -4.67795052	      0.42442806	      1.16292213	     -0.28052995	      0.00000000	      0.50000000	      0.00000000	      0.25000000	     70.45564575	      0.18853382	     -4.72102366	    101.80237805	      1.77678668	      3.86787010	     -4.31066246	      0.00000000	      0.00000000	     41.17379120	    -14.93849470	     -5.06433345	     26.27728442	      0.45862513	    -11.06739642	      2.51294737	      0.00000000	      0.00000000	    -60.75747038	      3.15563510	     -2.92571935	     42.80591363	    -22.04916534	     29.42747342	    102.64708250	     50.00426514	      0.00000000	      0.00000000	      6.61537109	    -36.82548568	     -6.59790027	    115.62889417	     53.57439040	      0.00000000	      0.00000000
      7.52500000	    -32.48861420	     -7.89536197	     -5.66456127	      0.42503175	      1.16232485	     -0.27987587	      0.00000000	      0.50000000	      0.00000000	      0.25000000	     71.59941138	      1.11876483	     -4.41118095	    103.02982605	      1.79820969	      4.46979178	     -3.98036141	      0.00000000	      0.00000000	     39.32979839	    -15.80262325	     -7.00703164	     24.89773160	      0.43454739	    -11.54082337	      3.75165129	      0.00000000	      0.00000000	    -60.96949508	      2.61940848	     -2.43487354	     43.22499030	    -22.56497635	     30.29276785	    102.71709020	     50.09900786	      0.00000000	      0.00000000	      6.38736100	    -36.32186461	     -6.74862598	    115.62942707	     53.57106211	      0.00000000	      0.00000000
      7.53000000	    -32.62986395	     -8.32991347	     -6.08548729	      0.42487387	      1.16113993	     -0.28011057	      0.00000000	      0.50000000	      0.00000000	      0.25000000	     73.05407723	      1.61044191	     -4.63373805	    104.11659157	      1.81717733	      4.84699968	     -4.01044072	      0.00000000	      0.00000000	     38.22799208	    -16.41558275	     -7.69346568	     23.75205985	      0.41455165	    -12.18353147	      4.41036130	      0.00000000	      0.00000000	    -60.85060347	      2.93100174	     -1.83861811	     43.55520823	    -22.63725282	     30.41478979	    102.75933534	     50.11146788	      0.00000000	      0.00000000	      6.07807553	    -36.14360780	     -6.72131518	    115.60649185	     53.57332460	      0.00000000	      0.00000000
      7.53500000	    -32.37543432	     -8.38459208	     -7.20602212	      0.42562271	      1.16079061	     -0.27898216	      0.00000000	      0.50000000	      0.00000000	      0.25000000	     74.13090933	      2.72424521	     -4.25788909	    105.05495871	      1.83355492	      5.15839731	     -3.81382064	      0.00000000	      0.00000000	     36.35694038	    -17.30981781	    -10.10523932	     22.66765263	      0.39562517	    -12.64887541	      6.08778137	      0.00000000	      0.00000000	    -61.08386610	      2.18379358	     -1.36927551	     43.86027684	    -23.18733343	     31.23985023	    102.88504807	     50.21163751	      0.00000000	      0.00000000	      5.76908450	    -35.43464101	     -6.92057070	    115.59533400	     53.56313434	      0.00000000	      0.00000000
      7.54000000	    -32.24580330	     -8.59736471	     -7.84563854	      0.42589758	      1.16027908	     -0.27864920	      0.00000000	      0.50000000	      0.00000000	      0.25000000	     75.27546418	      3.39651931	     -4.24121654	    105.85861533	      1.84758138	      5.34439098	     -3.74059777	      0.00000000	      0.00000000	     34.90710323	    -17.94004638	    -11.63680454	     21.77246676	      0.38000123	    -13.12148418	      7.35687170	      0.00000000	      0.00000000	    -61.26979971	      2.01459545	     -0.94110600	     44.23006403	    -23.46332944	     31.75521406	    103.03777617	     50.27981930	      0.00000000	      0.00000000	      5.57962510	    -34.85242826	     -7.14449122	    115.61949476	     53.55602410	      0.00000000	      0.00000000
      7.54500000	    -32.28745947	     -9.00447151	     -8.27827034	      0.42591048	      1.15990093	     -0.27881069	      0.00000000	      0.50000000	      0.00000000	      0.25000000	     76.50461083	      3.93128875	     -4.50078084	    106.43333044	      1.85761205	      5.45444438	     -3.64737833	      0.00000000	      0.00000000	     33.80007056	    -18.52887099	    -12.45618495	     20.96148846	      0.36584699	    -13.76463239	      8.07822465	      0.00000000	      0.00000000	    -61.37825258	      2.19301805	     -0.43118660	     44.58994804	    -23.56188504	     31.83690274	    103.11114108	     50.29244521	      0.00000000	      0.00000000	      5.36953031	    -34.52363923	     -7.19986163	    115.62396338	     53.55601397	      0.00000000	      0.00000000
